<?xml version="1.0" encoding="utf-8" ?>
<svg baseProfile="full" height="200mm" version="1.1" viewBox="0,0,200,200" width="200mm" xmlns="http://www.w3.org/2000/svg" xmlns:ev="http://www.w3.org/2001/xml-events" xmlns:xlink="http://www.w3.org/1999/xlink"><defs /><rect fill="#1a1a1a" height="200" width="200" x="0" y="0" /><text alignment-baseline="middle" fill="#e1ed5e" style="dominant-baseline: central; font-size:9.0px; font-family:Arial;" text-anchor="middle" x="100.0" y="100.0">2024</text><line stroke="#e1ed5e" stroke-width="0.3" x1="100.0" x2="100.0" y1="15.0" y2="10.0" /><path d="M 100.0 14.0 a86.0,86.0 0 0,1 42.35913384403234,11.155469271406648" fill="none" id="id25" stroke="none" /><text fill="#e1ed5e" style="font-size:6.75px; font-family:Arial;" text-anchor="middle"><textPath startOffset="22.145653131862478" xlink:href="#id25">January</textPath></text><path d="M 100.0 79.0 l 0.0 -15.58039252249312 a36.58039252249312,36.58039252249312 0 0,0 0.6279510805977486,0.005390204789205859 l -0.26745815574889387 15.578096715898349" fill="#ffb911" stroke="none" /><path d="M 100.36049292484886 79.00309439819443 l 0.39874564712007254 -23.224934900515382 a44.22835765232391,44.22835765232391 0 0,0 0.7590148208769038,0.019549529374865055 l -0.7973737820677177 23.21466765379047" fill="#e5ff1a" stroke="none" /><path d="M 100.72087961077811 79.0123766808444 l 0.7983603545219814 -23.24339063435139 a44.2570975712088,44.2570975712088 0 0,0 0.7590603074154623,0.0325973156359046 l -1.19724642253828 23.226260750289654" fill="#e4ff1a" stroke="none" /><path d="M 101.08105385017728 79.02784411241856 l 1.193952655771122 -23.162362554943655 a44.19311454011468,44.19311454011468 0 0,0 0.7572924697198697,0.0455568344552543 l -1.591389477623454 23.13845374266371" fill="#e5ff1a" stroke="none" /><path d="M 101.44090949804482 79.04949213459386 l 1.593850856621759 -23.174241653100626 a44.22898699361335,44.22898699361335 0 0,0 0.7570128216755985,0.05859758008138344 l -1.991432673072591 23.14346630602419" fill="#e5ff1a" stroke="none" /><path d="M 101.80034050326958 79.07731436759882 l 3.128220064314761 -36.35465895243875 a57.48899818190294,57.48899818190294 0 0,0 0.9825155499068173,0.09304524409374128 l -3.7518351776065915 36.295601952839824" fill="#50ff2b" stroke="none" /><path d="M 102.15924093988457 79.11130261209362 l 1.310583051479981 -12.678702157966569 a33.746258915668264,33.746258915668264 0 0,0 0.575717763084189,0.06451037618592174 l -1.5280367161649666 12.654336021273677" fill="#ff930d" stroke="none" /><path d="M 102.51750503828377 79.15144685158666 l 2.775816006968802 -22.98773852343818 a44.15472472145821,44.15472472145821 0 0,0 0.7517282550584878,0.09732627274129378 l -3.1700220839180817 22.936700654496487" fill="#e5ff1a" stroke="none" /><path d="M 102.87502721639298 79.19773525538626 l 3.17157297534857 -22.9479221323118 a44.166052864668316,44.166052864668316 0 0,0 0.7501391543443384,0.11024462322813014 l -3.5650372353005904 22.890096435784788" fill="#e5ff1a" stroke="none" /><path d="M 103.23170211078529 79.25015418208739 l 3.5718167138789934 -22.933625551527925 a44.21010675492984,44.21010675492984 0 0,0 0.7488823602454264,0.12322830739522501 l -3.9649765771774907 22.86893124563703" fill="#e5ff1a" stroke="none" /><path d="M 103.58742460773223 79.30868818359171 l 8.090573409406588 -46.66427743923995 a68.36044939629855,68.36044939629855 0 0,0 1.1545274761765685,0.21039336549310605 l -8.890435619134209 46.518515899815476" fill="#39ff8b" stroke="none" /><path d="M 103.94208987418118 79.37332000966035 l 4.347910616971004 -22.750105600139197 a44.161857256071976,44.161857256071976 0 0,0 0.7433986545476978,0.148700551003121 l -4.737805757049658 22.672115652473217" fill="#e5ff1a" stroke="none" /><path d="M 104.29559338865022 79.4440306129975 l 6.273634086463339 -30.02161018483142 a51.67010861964477,51.67010861964477 0 0,0 0.8666740092005011,0.1888875665144047 l -6.788070512282974 29.909491160183297" fill="#8eff24" stroke="none" /><path d="M 104.9986988182912 79.60360301121754 l 8.240228017952012 -33.622942297950296 a55.61796652836698,55.61796652836698 0 0,0 0.9253630050751718,0.23522365728622646 l -8.816196316252578 33.4765334088288" fill="#63ff29" stroke="none" /><path d="M 105.3480935250658 79.69241777938227 l 5.961163404238654 -22.63550840962985 a44.40730035895763,44.40730035895763 0 0,0 0.7355088094821408,0.20046619668675458 l -6.348853614655488 22.529841718798956" fill="#e2ff1b" stroke="none" /><path d="M 105.69591212413111 79.78721728523813 l 12.847409988409009 -45.59092571723727 a68.36653302876323,68.36653302876323 0 0,0 1.1268757569566064,0.32801710958681946 l -13.62814575774722 45.36366491334793" fill="#39ff8b" stroke="none" /><path d="M 106.04205211174951 79.88797359093562 l 6.825027737371208 -22.71829761773784 a44.721341662393364,44.721341662393364 0 0,0 0.7333434719996846,0.2271916822099474 l -7.214011842242523 22.597789347721246" fill="#dfff1b" stroke="none" /><path d="M 106.38641147887787 79.99465700312896 l 10.630550804079268 -33.300048984415845 a55.95571302037201,55.95571302037201 0 0,0 0.9125504480088372,0.2999734578155422 l -11.200623989735847 33.11265460519828" fill="#60ff29" stroke="none" /><path d="M 106.72888874123014 80.10723608172694 l 11.143353800458677 -32.94334546684607 a55.7769800941681,55.7769800941681 0 0,0 0.9043685607059119,0.31458633090208565 l -11.707228133209608 32.74720070337539" fill="#62ff29" stroke="none" /><path d="M 107.40779381753099 80.34994680014964 l 12.31664061272393 -32.671352530182695 a55.91585473870682,55.91585473870682 0 0,0 0.8952600633112406,0.3463058248654006 l -12.875672938528696 32.45510681717925" fill="#60ff29" stroke="none" /><path d="M 107.74402155503746 80.48000691201159 l 12.83854050034981 -32.36150881626453 a55.81516013239476,55.81516013239476 0 0,0 0.8875820821025932,0.3609719058117414 l -13.392177043642842 32.136349653873495" fill="#61ff29" stroke="none" /><path d="M 108.07796709384702 80.6158196554323 l 18.21896102692494 -43.71887408473903 a68.36317654188616,68.36317654188616 0 0,0 1.0793729281533861,0.4607201195469819 l -18.966769030248756 43.399679315532644" fill="#39ff8b" stroke="none" /><path d="M 108.4095320186766 80.7573450057729 l 9.314319637820091 -21.312986132697077 a44.25940515593679,44.25940515593679 0 0,0 0.6935798587810073,0.31022944885309645 l -9.67881289945673 21.149952932934127" fill="#e4ff1a" stroke="none" /><path d="M 109.06512990194946 81.05736502329252 l 15.011372632508216 -31.367995313094088 a55.77488228986993,55.77488228986993 0 0,0 0.860101141818525,0.4207185686812957 l -15.547634023588808 31.105682994315572" fill="#62ff29" stroke="none" /><path d="M 110.02825361518725 81.54914285379988 l 16.61547058693525 -30.570594440506444 a55.79418208941308,55.79418208941308 0 0,0 0.8375923890840138,0.46459837894132594 l -17.137807164175364 30.28086314613197" fill="#61ff29" stroke="none" /><path d="M 110.34350942703115 81.72400993836675 l 11.480966884318203 -20.28576839959099 a44.30933289823318,44.30933289823318 0 0,0 0.6587479749956898,0.38032832069188244 l -11.82750732717429 20.085693181622936" fill="#e4ff1b" stroke="none" /><line stroke="#e1ed5e" stroke-width="0.3" x1="143.13028292997686" x2="145.6673583964461" y1="26.7553504044142" y2="22.446841604673864" /><path d="M 143.63769802327073 25.89364864446614 a86.0,86.0 0 0,1 29.32050498858742,28.57503671076993" fill="none" id="id26" stroke="none" /><text fill="#e1ed5e" style="font-size:6.75px; font-family:Arial;" text-anchor="middle"><textPath startOffset="20.669276256404974" xlink:href="#id26">February</textPath></text><path d="M 110.96478420261332 82.08984904055464 l 18.37780843917104 -30.018768939462888 a56.19758985595077,56.19758985595077 0 0,0 0.8184399454053864,0.5107670574896046 l -18.89041251336614 29.698866085131737" fill="#5dff2a" stroke="none" /><path d="M 111.27062007382361 82.28071324371311 l 25.357037458191883 -39.86547457625198 a68.24653862290802,68.24653862290802 0 0,0 0.9831218324836547,0.6372476940748956 l -26.037644922932547 39.42431304047319" fill="#39ff89" stroke="none" /><path d="M 111.8722381534696 82.67804972795209 l 13.157882702138611 -19.197744090508824 a44.274089786023964,44.274089786023964 0 0,0 0.6232208702172545,0.4350565691835873 l -13.485498663529626 18.96904270552011" fill="#e4ff1a" stroke="none" /><path d="M 112.16784306229584 82.88440491214696 l 20.2905429888954 -28.5411897681957 a56.01864714931705,56.01864714931705 0 0,0 0.7789766067028937,0.5639189902899776 l -20.77750060597226 28.188670006532647" fill="#5fff29" stroke="none" /><path d="M 113.03279911837588 83.53348406188908 l 20.440100643842907 -25.825399438088944 a53.935527481236306,53.935527481236306 0 0,0 0.7210646567066582,0.5808386459540051 l -20.880416070904825 25.47071249834153" fill="#75ff27" stroke="none" /><path d="M 113.86319453409587 84.22622945171908 l 21.58319826720207 -24.55771765501689 a53.694279986946995,53.694279986946995 0 0,0 0.6871205186681125,0.614427404788398 l -22.001583812693557 24.183594720345106" fill="#78ff26" stroke="none" /><path d="M 114.39649973595853 84.71141617570332 l 23.74952183111201 -25.221169170378538 a55.643140179944986,55.643140179944986 0 0,0 0.6897828743663357,0.6607963901230693 l -24.17897719134366 24.809760649949887" fill="#63ff29" stroke="none" /><path d="M 114.91283532996326 85.21462403516908 l 24.577024390118485 -24.36696561482226 a55.60894596988486,55.60894596988486 0 0,0 0.6662830847673524,0.6836651413073934 l -24.99169427603665 23.941477781447126" fill="#63ff29" stroke="none" /><path d="M 115.6541949942343 86.00192230759917 l 26.18898230593053 -23.4183494672418 a56.13234814227775,56.13234814227775 0 0,0 0.6361370386612708,0.7238071759309819 l -26.58713040855039 22.96533001349952" fill="#5eff2a" stroke="none" /><path d="M 115.8921839302757 86.27271002978787 l 18.00527488347749 -15.552527607486912 a44.792247447671436,44.792247447671436 0 0,0 0.4976321353464964,0.5862094041599706 l -18.2696015823311 15.241151420877388" fill="#deff1b" stroke="none" /><path d="M 116.57777611688842 87.10902102172516 l 7.2129008847846725 -5.608795354849534 a30.136986620670363,30.136986620670363 0 0,0 0.31406761573492487,0.411124590702924 l -7.308120477873904 5.4841498509057285" fill="#ff6108" stroke="none" /><path d="M 117.21940702142032 87.97951657250589 l 19.001357684432037 -13.26442338353899 a44.17318539928208,44.17318539928208 0 0,0 0.4287118353301488,0.625503379955113 l -19.22625925657751 12.93628526851383" fill="#e5ff1a" stroke="none" /><path d="M 117.62189284568427 88.57770195909679 l 29.034279752222027 -18.81966935317407 a55.60013519183255,55.60013519183255 0 0,0 0.512268690610874,0.8053714672082188 l -29.35306613445879 18.318484211287178" fill="#63ff29" stroke="none" /><line stroke="#e1ed5e" stroke-width="0.3" x1="172.87174338648825" x2="177.1583165268699" y1="56.24261187166439" y2="53.66864786411523" /><path d="M 173.72905801456457 55.72781907015455 a86.0,86.0 0 0,1 12.242430191666344,42.057860355516425" fill="none" id="id27" stroke="none" /><text fill="#e1ed5e" style="font-size:6.75px; font-family:Arial;" text-anchor="middle"><textPath startOffset="22.145653131862474" xlink:href="#id27">March</textPath></text><path d="M 118.00360718960297 89.18935116829356 l 20.050695153212313 -12.039866336239303 a44.387790778984666,44.387790778984666 0 0,0 0.38665208965408443,0.6566197784534111 l -20.254420952996163 11.693895389492335" fill="#e3ff1b" stroke="none" /><path d="M 118.36410011445183 89.81374322990088 l 20.253869322470845 -11.234479893973278 a44.161018134352716,44.161018134352716 0 0,0 0.3620249827404793,0.6660851925188864 l -20.443739654826665 10.885139867979788" fill="#e5ff1a" stroke="none" /><path d="M 118.8641267826498 90.77261029715802 l 31.12247373204575 -15.223561469390695 a55.64628688639224,55.64628688639224 0 0,0 0.4123674503350466,0.8616893715215873 l -31.37922044034071 14.687059595804005" fill="#63ff29" stroke="none" /><path d="M 119.31412917781788 91.75594674310238 l 18.712029783974334 -7.987052828708863 a41.345345205351734,41.345345205351734 0 0,0 0.2730252775571293,0.655161274774714 l -18.846380906067946 7.664659044492871" fill="#fff617" stroke="none" /><path d="M 119.58574465831526 92.42381321644754 l 14.292035760576733 -5.528466460087836 a36.324040837257,36.324040837257 0 0,0 0.21996683020810984,0.58348815075855 l -14.384833274599282 5.282310029135128" fill="#ffb510" stroke="none" /><path d="M 119.83427380445688 93.10060997987247 l 14.456748142294988 -5.028807449155733 a36.306419281152394,36.306419281152394 0 0,0 0.1997105103561561,0.590408637635836 l -14.540944074223509 4.779897137045735" fill="#ffb510" stroke="none" /><path d="M 120.16314734710363 94.1308016681162 l 33.80624101031448 -9.840504060666953 a56.209337560020515,56.209337560020515 0 0,0 0.26172541838607805,0.9287711779041837 l -33.97018492077514 9.258724958859755" fill="#5dff2a" stroke="none" /><path d="M 120.26092885502905 94.47779374421319 l 25.363840726629558 -6.913027578032686 a47.289054123350894,47.289054123350894 0 0,0 0.2067444100627646,0.785042199865239 l -25.478774617497052 6.476604873794648" fill="#c0ff1e" stroke="none" /><path d="M 120.51834098615036 95.52812308129327 l 30.978995884108965 -6.751727966328598 a52.70621416250991,52.70621416250991 0 0,0 0.18507985172022187,0.8856740901418082 l -31.090333446653556 6.218937424901386" fill="#83ff25" stroke="none" /><path d="M 120.7213421655516 96.59031103205396 l 10.087987344294547 -1.659974478574263 a31.223649247121344,31.223649247121344 0 0,0 0.08248768905849864,0.5296301364310514 l -10.11499652549131 1.4865561602117703" fill="#ff700a" stroke="none" /><path d="M 120.77682067341334 96.94652285012252 l 8.959767826181068 -1.3167773238982643 a30.05601137476108,30.05601137476108 0 0,0 0.07063947484873162,0.5111120509904 l -8.981051817585012 1.1627769647077786" fill="#ff6008" stroke="none" /><path d="M 120.86939407059847 97.66154086499901 l 17.788817610128326 -1.9932741171377018 a38.900144515407206,38.900144515407206 0 0,0 0.0686635852049326,0.6642579002745453 l -17.820413587814922 1.6876116945802249" fill="#ffd714" stroke="none" /><path d="M 120.93736805541906 98.37931529534042 l 62.812104166257186 -4.862054113978731 a84.0,84.0 0 0,0 0.09894415533973566,1.4386263033826634 l -62.886312282761985 3.783084386441734" fill="#4dd2ff" stroke="none" /><line stroke="#e1ed5e" stroke-width="0.3" x1="184.99686870605535" x2="189.99668451229388" y1="99.2704041080226" y2="99.22748670261217" /><path d="M 185.99683186730306 99.26182062694052 a86.0,86.0 0 0,1 -10.086455211305974,41.156179273409016" fill="none" id="id28" stroke="none" /><text fill="#e1ed5e" style="font-size:6.75px; font-family:Arial;" text-anchor="middle"><textPath startOffset="21.40746469413373" xlink:href="#id28">April</textPath></text><path d="M 120.99922638620191 99.81974689727618 l 2.4627315187504792 -0.021139588157505905 a23.462822246049136,23.462822246049136 0 0,0 0.0,0.40278538176266526 l -2.4627315187504792 -0.021139588157505607" fill="#ff0000" stroke="none" /><path d="M 120.99303781780057 100.54070618675476 l 10.209774231234185 0.26296756763409523 a31.213160225630507,31.213160225630507 0 0,0 -0.01839393464808479,0.5355193377357781 l -10.203755609589255 -0.43819316993398405" fill="#ff700a" stroke="none" /><path d="M 120.96210409425399 101.26102812881392 l 21.81632411032211 1.3124158837651465 a42.85576430003263,42.85576430003263 0 0,0 -0.05048008809649437,0.7339694020665841 l -21.79058006106055 -1.6867287099860742" fill="#f5ff19" stroke="none" /><path d="M 120.82617615685814 102.69636545807757 l 35.904027001482646 4.64849511900447 a57.20369679735211,57.20369679735211 0 0,0 -0.13444362429821366,0.9727670924053232 l -35.818938860629224 -5.264150519609878" fill="#53ff2b" stroke="none" /><path d="M 120.65975698304385 103.76489593502545 l 11.034396333724926 2.010834587086223 a32.21612046058459,32.21612046058459 0 0,0 -0.10381830094535005,0.5432212199843218 l -10.998251740497416 -2.19995837210386" fill="#ff7e0b" stroke="none" /><path d="M 120.35273937422433 105.17358676015961 l 6.061824534745283 1.540892092151802 a27.254603514987647,27.254603514987647 0 0,0 -0.11915520472248757,0.45245172051972465 l -6.034479849218066 -1.6447243170443298" fill="#ff3805" stroke="none" /><path d="M 119.16976305983485 108.57439118712176 l 10.26444124919459 4.591154012342885 a32.24444081860986,32.24444081860986 0 0,0 -0.2303412878501539,0.5033372839365109 l -10.18411549648938 -4.766680278494086" fill="#ff7e0b" stroke="none" /><path d="M 119.0197475246899 108.90220220490707 l 44.57177392812527 20.86184075916358 a70.21239103072118,70.21239103072118 0 0,0 -0.5203097329814119,1.0872472268241327 l -44.20708493718394 -21.623900488052815" fill="#3bffa0" stroke="none" /><line stroke="#e1ed5e" stroke-width="0.3" x1="174.33088141563837" x2="178.70328620479359" y1="141.23008692659167" y2="143.65538615756765" /><path d="M 175.20536237346943 141.71514677278685 a86.0,86.0 0 0,1 -30.301960400862466,31.631185727798858" fill="none" id="id29" stroke="none" /><text fill="#e1ed5e" style="font-size:6.75px; font-family:Arial;" text-anchor="middle"><textPath startOffset="22.145653131862474" xlink:href="#id29">May</textPath></text><path d="M 117.62189284568427 111.42229804090321 l 48.18773298192171 31.234706331208468 a78.42529485804857,78.42529485804857 0 0,0 -0.7419614027966785,1.1234241304996755 l -47.64444714020431 -32.0573103400472" fill="#46fff6" stroke="none" /><line stroke="#e1ed5e" stroke-width="0.3" x1="143.1302829299769" x2="145.66735839644613" y1="173.24464959558577" y2="177.55315839532614" /><path d="M 143.63769802327073 174.10635135553383 a86.0,86.0 0 0,1 -40.68552437913181,11.842963189579606" fill="none" id="id30" stroke="none" /><text fill="#e1ed5e" style="font-size:6.75px; font-family:Arial;" text-anchor="middle"><textPath startOffset="21.407464694133747" xlink:href="#id30">June</textPath></text><line stroke="#e1ed5e" stroke-width="0.3" x1="101.45913802915013" x2="101.54496967792366" y1="184.9874750549273" y2="189.98673829345242" /><path d="M 101.47630435890484 185.9873277026323 a86.0,86.0 0 0,1 -42.54439059252881,-10.42667462771756" fill="none" id="id31" stroke="none" /><text fill="#e1ed5e" style="font-size:6.75px; font-family:Arial;" text-anchor="middle"><textPath startOffset="22.145653131862474" xlink:href="#id31">July</textPath></text><line stroke="#e1ed5e" stroke-width="0.3" x1="58.13341422392154" x2="55.67067388415222" y1="173.97424548756322" y2="178.32567169271397" /><path d="M 57.64086615596768 174.84453072859336 a86.0,86.0 0 0,1 -31.369924170532247,-30.572349798747897" fill="none" id="id32" stroke="none" /><text fill="#e1ed5e" style="font-size:6.75px; font-family:Arial;" text-anchor="middle"><textPath startOffset="22.145653131862474" xlink:href="#id32">August</textPath></text><line stroke="#e1ed5e" stroke-width="0.3" x1="26.387840678322732" x2="22.057713659400548" y1="142.50000000000003" y2="145.00000000000006" /><path d="M 25.521815274538298 143.00000000000003 a86.0,86.0 0 0,1 -11.493303480769221,-40.785679425670985" fill="none" id="id33" stroke="none" /><text fill="#e1ed5e" style="font-size:6.75px; font-family:Arial;" text-anchor="middle"><textPath startOffset="21.40746469413373" xlink:href="#id33">September</textPath></text><line stroke="#e1ed5e" stroke-width="0.3" x1="15.003131293944662" x2="10.003315487706104" y1="100.72959589197737" y2="100.7725132973878" /><path d="M 14.003168132696942 100.73817937305945 a86.0,86.0 0 0,1 10.791469493833604,-42.45332614584628" fill="none" id="id34" stroke="none" /><text fill="#e1ed5e" style="font-size:6.75px; font-family:Arial;" text-anchor="middle"><textPath startOffset="22.145653131862435" xlink:href="#id34">October</textPath></text><line stroke="#e1ed5e" stroke-width="0.3" x1="26.387840678322718" x2="22.05771365940052" y1="57.49999999999999" y2="54.99999999999999" /><path d="M 25.521815274538284 56.99999999999999 a86.0,86.0 0 0,1 29.574782752854787,-30.34633250058573" fill="none" id="id35" stroke="none" /><text fill="#e1ed5e" style="font-size:6.75px; font-family:Arial;" text-anchor="middle"><textPath startOffset="21.40746469413373" xlink:href="#id35">November</textPath></text><line stroke="#e1ed5e" stroke-width="0.3" x1="56.869717070023135" x2="54.33264160355391" y1="26.7553504044142" y2="22.446841604673864" /><path d="M 56.362301976729285 25.89364864446614 a86.0,86.0 0 0,1 42.16139366436587,-11.88097634709845" fill="none" id="id36" stroke="none" /><text fill="#e1ed5e" style="font-size:6.75px; font-family:Arial;" text-anchor="middle"><textPath startOffset="22.145653131862474" xlink:href="#id36">December</textPath></text></svg>