<?xml version="1.0" encoding="utf-8" ?>
<svg baseProfile="full" height="200mm" version="1.1" viewBox="0,0,200,200" width="200mm" xmlns="http://www.w3.org/2000/svg" xmlns:ev="http://www.w3.org/2001/xml-events" xmlns:xlink="http://www.w3.org/1999/xlink"><defs /><rect fill="#1a1a1a" height="200" width="200" x="0" y="0" /><text alignment-baseline="middle" fill="#e1ed5e" style="dominant-baseline: central; font-size:9.0px; font-family:Arial;" text-anchor="middle" x="100.0" y="100.0">2022</text><line stroke="#e1ed5e" stroke-width="0.3" x1="100.0" x2="100.0" y1="15.0" y2="10.0" /><path d="M 100.0 14.0 a86.0,86.0 0 0,1 42.46469731375804,11.215312516191453" fill="none" id="id1" stroke="none" /><text fill="#e1ed5e" style="font-size:6.75px; font-family:Arial;" text-anchor="middle"><textPath startOffset="22.20632615414155" xlink:href="#id1">January</textPath></text><line stroke="#e1ed5e" stroke-width="0.3" x1="143.23703022742887" x2="145.7803849466894" y1="26.81831364943548" y2="22.513508569990506" /><path d="M 143.74570117128098 25.957352633546492 a86.0,86.0 0 0,1 28.547481713284135,27.462654790039103" fill="none" id="id2" stroke="none" /><text fill="#e1ed5e" style="font-size:6.75px; font-family:Arial;" text-anchor="middle"><textPath startOffset="19.985693538727396" xlink:href="#id2">February</textPath></text><line stroke="#e1ed5e" stroke-width="0.3" x1="172.23445277983987" x2="176.4835382374775" y1="55.19839476539836" y2="52.563006222186495" /><path d="M 173.08426987136738 54.67131705675599 a86.0,86.0 0 0,1 12.851231095245387,41.99856678651699" fill="none" id="id3" stroke="none" /><text fill="#e1ed5e" style="font-size:6.75px; font-family:Arial;" text-anchor="middle"><textPath startOffset="22.20632615414155" xlink:href="#id3">March</textPath></text><line stroke="#e1ed5e" stroke-width="0.3" x1="184.98032266829074" x2="189.97916517819016" y1="98.17113171792111" y2="98.06355123074" /><path d="M 185.9800911702706 98.14961562048488 a86.0,86.0 0 0,1 -9.607161424134198,41.387399972396054" fill="none" id="id4" stroke="none" /><text fill="#e1ed5e" style="font-size:6.75px; font-family:Arial;" text-anchor="middle"><textPath startOffset="21.466115282336823" xlink:href="#id4">April</textPath></text><line stroke="#e1ed5e" stroke-width="0.3" x1="174.80103733775053" x2="179.2010983576182" y1="140.37084112569926" y2="142.7455964860345" /><path d="M 175.68104954172406 140.8457921977663 a86.0,86.0 0 0,1 -30.038265399797805,32.042727171017184" fill="none" id="id5" stroke="none" /><text fill="#e1ed5e" style="font-size:6.75px; font-family:Arial;" text-anchor="middle"><textPath startOffset="22.206326154141568" xlink:href="#id5">May</textPath></text><line stroke="#e1ed5e" stroke-width="0.3" x1="143.8653032363475" x2="146.44561519142675" y1="172.8068346515853" y2="177.08958963109032" /><path d="M 144.38136562736335 173.6633856474863 a86.0,86.0 0 0,1 -40.68145358897372,12.25698825130547" fill="none" id="id6" stroke="none" /><text fill="#e1ed5e" style="font-size:6.75px; font-family:Arial;" text-anchor="middle"><textPath startOffset="21.466115282336833" xlink:href="#id6">June</textPath></text><line stroke="#e1ed5e" stroke-width="0.3" x1="102.19456741930631" x2="102.32365962044197" y1="184.97166512339345" y2="189.96999836594603" /><path d="M 102.22038585953345 185.97133177190398 a86.0,86.0 0 0,1 -42.740103519485714,-10.115201625700543" fill="none" id="id7" stroke="none" /><text fill="#e1ed5e" style="font-size:6.75px; font-family:Arial;" text-anchor="middle"><textPath startOffset="22.20632615414155" xlink:href="#id7">July</textPath></text><line stroke="#e1ed5e" stroke-width="0.3" x1="58.666819895761336" x2="56.23545636021788" y1="174.27360380694188" y2="178.64263932499728" /><path d="M 58.180547188652646 175.14741091055294 a86.0,86.0 0 0,1 -31.652253787137756,-30.449443065178592" fill="none" id="id8" stroke="none" /><text fill="#e1ed5e" style="font-size:6.75px; font-family:Arial;" text-anchor="middle"><textPath startOffset="22.20632615414155" xlink:href="#id8">August</textPath></text><line stroke="#e1ed5e" stroke-width="0.3" x1="26.63291911575756" x2="22.317208475507996" y1="142.92168965132927" y2="145.44649492493687" /><path d="M 25.769776987707644 143.4266507060508 a86.0,86.0 0 0,1 -11.730757126820373,-40.83630448921669" fill="none" id="id9" stroke="none" /><text fill="#e1ed5e" style="font-size:6.75px; font-family:Arial;" text-anchor="middle"><textPath startOffset="21.46611528233685" xlink:href="#id9">September</textPath></text><path d="M 81.18737489456691 109.33194174019688 l -5.618623089627541 2.7870997821237964 a27.271909646894656,27.271909646894656 0 0,0 -0.20498962493618816,-0.4223393432898587 l 5.665765971178448 -2.689971482868653" fill="#ff0000" stroke="none" /><path d="M 80.58989483394504 108.01547362559985 l -14.012119983767331 5.786355983534068 a36.159862202793015,36.159862202793015 0 0,0 -0.23262394535287767,-0.5773535550149308 l 14.109646543377595 -5.544303060676332" fill="#ff880c" stroke="none" /><path d="M 80.45479744820244 107.68017299344265 l -41.94764102264286 16.483080125004864 a66.06990700868863,66.06990700868863 0 0,0 -0.4068198534737308,-1.062078264174193 l 42.2251551557101 -15.758578293997514" fill="#35ff62" stroke="none" /><path d="M 80.32549172779594 107.34259656027581 l -35.384902012614724 13.205771458623358 a58.76881902124737,58.76881902124737 0 0,0 -0.345548731357083,-0.9508017014198857 l 35.60697500497704 -12.594721960197356" fill="#54ff2b" stroke="none" /><path d="M 80.20201598880116 107.00284435728193 l -59.3939520335965 21.008533071845783 a84.0,84.0 0 0,0 -0.4704366762270862,-1.3673091876428125 l 59.746779540766816 -19.983051181113673" fill="#4dd2ff" stroke="none" /><path d="M 79.97269907076064 106.31721596034903 l -14.085308664636953 4.442932026490826 a35.76941316268574,35.76941316268574 0 0,0 -0.18016410837042732,-0.5887867303801052 l 14.159699545513512 -4.199818323558674" fill="#ff820c" stroke="none" /><path d="M 79.67330655649465 105.27499134158121 l -15.653364383155777 4.0622131591277135 a37.171870400854694,37.171870400854694 0 0,0 -0.15539379274692203,-0.6207209574813264 l 15.72096949019776 -3.792164362248995" fill="#ff970d" stroke="none" /><path d="M 79.4281124754447 104.21870165774334 l -10.17448252210601 2.0864933386134266 a31.386219189133207,31.386219189133207 0 0,0 -0.10397816060135338,-0.5301824007895881 l 10.20889061568303 -1.9110472107558836" fill="#ff4006" stroke="none" /><line stroke="#e1ed5e" stroke-width="0.3" x1="15.007084014347285" x2="10.007500721073583" y1="101.09737516637583" y2="101.16192664675087" /><path d="M 14.007167355692545 101.11028546245083 a86.0,86.0 0 0,1 10.666146001902534,-42.60595125391555" fill="none" id="id10" stroke="none" /><text fill="#e1ed5e" style="font-size:6.75px; font-family:Arial;" text-anchor="middle"><textPath startOffset="22.20632615414155" xlink:href="#id10">October</textPath></text><path d="M 79.00019446554 99.90962569577889 l -22.283547966346145 -0.09589899009930418 a43.28375431978982,43.28375431978982 0 0,0 0.00961928444423847,-0.74502418102964 l 22.278595674784192 0.4794594291894161" fill="#ffec16" stroke="none" /><path d="M 79.62865764111835 94.90015583598534 l -11.053677934225995 -2.7672224005004007 a32.3947933586979,32.3947933586979 0 0,0 0.1400745745368179,-0.539764475705444 l 11.00440702781887 2.9570833017547087" fill="#ff5007" stroke="none" /><path d="M 79.81627453868168 94.20196356495316 l -28.81509611477724 -8.277509396025192 a50.98044239008384,50.98044239008384 0 0,0 0.249547087635094,-0.8413487230030516 l 28.66834313003044 8.772287505774782" fill="#afff20" stroke="none" /><path d="M 79.91906864156998 93.8553929516997 l -10.640623462676468 -3.2559470853239945 a32.12762594163242,32.12762594163242 0 0,0 0.16636681622375815,-0.5274282712615326 l 10.583001162684505 3.4386255230119414" fill="#ff4c07" stroke="none" /><path d="M 80.2630227832202 92.82701384747504 l -28.750503065618485 -10.448761130072114 a51.59032585114849,51.59032585114849 0 0,0 0.3105133554900492,-0.8320214151857639 l 28.56638512162681 10.94210568228722" fill="#a7ff21" stroke="none" /><path d="M 81.43458229118936 90.18545643968196 l -7.179934297987086 -3.7956473176670693 a29.121477395371148,29.121477395371148 0 0,0 0.23809151464655137,-0.44114741680576636 l 7.113534684122063 3.9186757178053084" fill="#ff1d03" stroke="none" /><line stroke="#e1ed5e" stroke-width="0.3" x1="26.266209847984243" x2="21.928928074336255" y1="57.711370442889674" y2="55.22380399835377" /><path d="M 25.398753493254645 57.213857153982495 a86.0,86.0 0 0,1 29.58750427330803,-30.492523968695096" fill="none" id="id11" stroke="none" /><text fill="#e1ed5e" style="font-size:6.75px; font-family:Arial;" text-anchor="middle"><textPath startOffset="21.46611528233685" xlink:href="#id11">November</textPath></text><path d="M 82.7489923806493 88.02491185347247 l -18.339715477371843 -12.730833715325259 a43.32530606460334,43.32530606460334 0 0,0 0.4305449818484389,-0.6089753435850217 l 18.117857875719526 13.044635559242066" fill="#ffec16" stroke="none" /><path d="M 84.31358615837235 86.03803664274999 l -13.02236214552505 -11.590778168695481 a38.433532470647236,38.433532470647236 0 0,0 0.4441019555996324,-0.4903884714711877 l 12.820916549309372 11.813219427436225" fill="#ffa90f" stroke="none" /><path d="M 86.10567301691215 84.25364557470407 l -16.267354855195308 -18.435692165856707 a45.58661382986841,45.58661382986841 0 0,0 0.5928565207443725,-0.5141193326843507 l 15.947604535804162 18.712976491960738" fill="#f3ff19" stroke="none" /><line stroke="#e1ed5e" stroke-width="0.3" x1="56.76296977257108" x2="54.21961505331056" y1="26.818313649435495" y2="22.513508569990535" /><path d="M 56.25429882871898 25.957352633546506 a86.0,86.0 0 0,1 42.26535254187918,-11.944610805530505" fill="none" id="id12" stroke="none" /><text fill="#e1ed5e" style="font-size:6.75px; font-family:Arial;" text-anchor="middle"><textPath startOffset="22.20632615414155" xlink:href="#id12">December</textPath></text><path d="M 90.26544431104013 81.39251694778311 l -17.044519440520823 -32.580388541242215 a57.76951672862453,57.76951672862453 0 0,0 0.8850826735476387,-0.45337372218864735 l 16.481176279384417 32.868954788743366" fill="#5fff29" stroke="none" /><path d="M 92.23578459929587 80.48803036053334 l -14.037190878051371 -35.27635802209935 a58.96661906267375,58.96661906267375 0 0,0 0.9463211108177138,-0.36715788901671825 l 13.427886602233981 35.51275861500662" fill="#52ff2b" stroke="none" /><path d="M 96.75951476605007 79.25152402106235 l -4.402151622884631 -28.18650004824393 a49.528191738708585,49.528191738708585 0 0,0 0.8434675099542727,-0.12430518543633676 l 3.91631513250171 28.258099717841233" fill="#c1ff1e" stroke="none" /><path d="M 99.63851952072746 79.00311137660856 l -0.6360833228350834 -36.94741888038525 a57.952893850363566,57.952893850363566 0 0,0 0.99756380210761,-0.008586346586872205 l 9.050848634615931e-15 36.952893850363566" fill="#5dff2a" stroke="none" /></svg>