<?xml version="1.0" encoding="utf-8" ?>
<svg baseProfile="full" height="200mm" version="1.1" viewBox="0,0,200,200" width="200mm" xmlns="http://www.w3.org/2000/svg" xmlns:ev="http://www.w3.org/2001/xml-events" xmlns:xlink="http://www.w3.org/1999/xlink"><defs /><rect fill="#1a1a1a" height="200" width="200" x="0" y="0" /><text alignment-baseline="middle" fill="#e1ed5e" style="dominant-baseline: central; font-size:9.0px; font-family:Arial;" text-anchor="middle" x="100.0" y="100.0">2023</text><line stroke="#e1ed5e" stroke-width="0.3" x1="100.0" x2="100.0" y1="15.0" y2="10.0" /><path d="M 100.0 14.0 a86.0,86.0 0 0,1 42.46469731375804,11.215312516191453" fill="none" id="id13" stroke="none" /><text fill="#e1ed5e" style="font-size:6.75px; font-family:Arial;" text-anchor="middle"><textPath startOffset="22.20632615414155" xlink:href="#id13">January</textPath></text><path d="M 102.52436894288641 79.15227682838746 l 5.838659387788536 -48.21908261586054 a69.57128649481909,69.57128649481909 0 0,0 1.1876324536739828,0.15418877776653003 l -6.667806569970366 48.11143551492987" fill="#3bff9b" stroke="none" /><path d="M 105.36241919743992 79.69619591428918 l 3.0351454651041143 -11.49201444835346 a32.88606343898209,32.88606343898209 0 0,0 0.5460685588712384,0.14926116499882558 l -3.2325119131990636 11.438066742528342" fill="#ff930d" stroke="none" /><path d="M 105.71112130821622 79.79150937346287 l 2.2872316827452353 -8.093244308255189 a29.410233778181116,29.410233778181116 0 0,0 0.4859828009557018,0.1418717061248257 l -2.426204701424364 8.05267427321166" fill="#ff6409" stroke="none" /><path d="M 106.40334571778207 80.00007090966166 l 2.5445178574710807 -7.947435444130309 a29.344836802814537,29.344836802814537 0 0,0 0.4797422168047204,0.15816346618719426 l -2.6809428965182183 7.9024582536838786" fill="#ff6309" stroke="none" /><path d="M 107.08798089147638 80.2323363322302 l 0.46890756797334127 -1.3077359034807157 a22.389261494663693,22.389261494663693 0 0,0 0.36165872437568697,0.13320196035109352 l -0.4913486181216047 1.2994706753232974" fill="#ff0000" stroke="none" /><path d="M 107.4271985657038 80.35727306442388 l 22.28159569711141 -58.92818080672834 a84.0,84.0 0 0,0 1.3480673400013319,0.5230291844378128 l -23.292646202112408 58.53590891839998" fill="#4dd2ff" stroke="none" /><path d="M 108.09893153111575 80.62456947434976 l 2.1573456562661026 -5.161113008821633 a26.593856252214398,26.593856252214398 0 0,0 0.4208366845524009,0.18018030575498814 l -2.245866098608819 5.123213175103854" fill="#ff3d05" stroke="none" /><path d="M 109.08828744355905 81.06846463323043 l 2.424895346905267 -5.051225800872603 a26.603124087046787,26.603124087046787 0 0,0 0.41111800731112175,0.20173382072166474 l -2.5114846212268205 5.008736820016106" fill="#ff3d05" stroke="none" /><path d="M 110.36928655335952 81.73862282372117 l 6.634115865738777 -11.683358486813242 a34.43548878349567,34.43548878349567 0 0,0 0.5129301624110011,0.29712225741957127 l -6.834242760615106 11.567432072003621" fill="#ffa80f" stroke="none" /><line stroke="#e1ed5e" stroke-width="0.3" x1="143.23703022742887" x2="145.7803849466894" y1="26.81831364943548" y2="22.513508569990506" /><path d="M 143.74570117128098 25.957352633546492 a86.0,86.0 0 0,1 28.547481713284135,27.462654790039103" fill="none" id="id14" stroke="none" /><text fill="#e1ed5e" style="font-size:6.75px; font-family:Arial;" text-anchor="middle"><textPath startOffset="19.985693538727396" xlink:href="#id14">February</textPath></text><path d="M 111.2981086023043 82.29822771554956 l 7.231944043390955 -11.33094318139982 a34.44214596062879,34.44214596062879 0 0,0 0.49700504422958497,0.32326590586164294 l -7.42591611340482 11.204778351378648" fill="#ffa80f" stroke="none" /><path d="M 112.48926042617603 83.11751280151076 l 3.29778145627433 -4.457810256104423 a26.54503695323815,26.54503695323815 0 0,0 0.364999119946351,0.274909769918264 l -3.374026729979064 4.400383896680312" fill="#ff3c05" stroke="none" /><path d="M 113.6212207817346 84.01681056812373 l 8.644211842017771 -10.143149250286488 a34.326885423206264,34.326885423206264 0 0,0 0.44642310867712504,0.3871337207184365 l -8.81752874934166 9.992850536148378" fill="#ffa60f" stroke="none" /><path d="M 117.04232023915458 87.72973835380427 l 10.925034161727076 -7.865890663762571 a34.46211749202817,34.46211749202817 0 0,0 0.34246709597248287,0.48439542029042293 l -11.058813877503441 7.676668743140356" fill="#ffa80f" stroke="none" /><path d="M 117.45458315368197 88.32363383020206 l 4.883906915526538 -3.2671238827532134 a26.875937816619945,26.875937816619945 0 0,0 0.25391792812993247,0.3867344248496124 l -4.939421479014395 3.1825713939259273" fill="#ff4106" stroke="none" /><path d="M 117.65298651832404 88.62581576622439 l 4.744105023774015 -3.0567249631542244 a26.64358928138539,26.64358928138539 0 0,0 0.24508600886289075,0.38766720848875563 l -4.7960186288828615 2.9746101069512627" fill="#ff3d05" stroke="none" /><line stroke="#e1ed5e" stroke-width="0.3" x1="172.23445277983987" x2="176.4835382374775" y1="55.19839476539836" y2="52.563006222186495" /><path d="M 173.08426987136738 54.67131705675599 a86.0,86.0 0 0,1 12.851231095245387,41.99856678651699" fill="none" id="id15" stroke="none" /><text fill="#e1ed5e" style="font-size:6.75px; font-family:Arial;" text-anchor="middle"><textPath startOffset="22.20632615414155" xlink:href="#id15">March</textPath></text><path d="M 118.3937258080291 89.86733742301442 l 11.828629495751928 -6.516108409983745 a34.50467121252618,34.50467121252618 0 0,0 0.28210345649145424,0.5226948607888404 l -11.939041051461848 6.3115325658624455" fill="#ffa90f" stroke="none" /><path d="M 119.61058180528143 92.48833698450437 l 12.565331669465998 -4.813041148710031 a34.45559084778001,34.45559084778001 0 0,0 0.20738231350594233,0.5556814961965214 l -12.646318571473566 4.596036515484176" fill="#ffa80f" stroke="none" /><path d="M 120.37134235888165 94.90015583598534 l 23.00957928257772 -5.760311056258169 a44.71965265820897,44.71965265820897 0 0,0 0.18051236805453225,0.748340303769349 l -23.10532445089307 5.363385520829414" fill="#d6ff1c" stroke="none" /><path d="M 120.83666639777658 97.38593545837742 l 13.086590602239843 -1.6417785748922284 a34.18917322957005,34.18917322957005 0 0,0 0.068231246721449,0.5845636537892116 l -13.11291220196488 1.4162711827781642" fill="#ffa40f" stroke="none" /><path d="M 120.87857604477298 97.74499172005257 l 13.225040507726872 -1.428381695361376 a34.30195364217828,34.30195364217828 0 0,0 0.058350684705407295,0.587583431892079 l -13.247668318114508 1.2005227327648622" fill="#ffa60f" stroke="none" /><line stroke="#e1ed5e" stroke-width="0.3" x1="184.98032266829074" x2="189.97916517819016" y1="98.17113171792111" y2="98.06355123074" /><path d="M 185.9800911702706 98.14961562048488 a86.0,86.0 0 0,1 -9.607161424134198,41.387399972396054" fill="none" id="id16" stroke="none" /><text fill="#e1ed5e" style="font-size:6.75px; font-family:Arial;" text-anchor="middle"><textPath startOffset="21.466115282336823" xlink:href="#id16">April</textPath></text><path d="M 120.99980553446 99.90962569577887 l 14.067529275134037 -0.06054071159203756 a35.067659545372614,35.067659545372614 0 0,0 -0.002597850143120081,0.6036488832015373 l -14.066487127701413 -0.18161764981318443" fill="#ffb010" stroke="none" /><path d="M 120.9764740272857 100.99374915477107 l 13.442602945475182 0.6368360715729658 a34.45767937393942,34.45767937393942 0 0,0 -0.033167401909277645,0.5922262416904877 l -13.429649192678374 -0.8681340295988769" fill="#ffa80f" stroke="none" /><path d="M 120.8583938346157 102.4346265915055 l 23.47906349677849 2.740515534711899 a44.638461203761835,44.638461203761835 0 0,0 -0.09565063731963837,0.7624296909390615 l -23.428411350212002 -3.1442629799383557" fill="#d7ff1c" stroke="none" /><path d="M 120.49622156327973 104.57218783832717 l 13.176115133221352 2.9392575203443116 a34.499972028667514,34.499972028667514 0 0,0 -0.1342861042397638,0.5785010224710307 l -13.123568463051035 -3.1656272001639074" fill="#ffa90f" stroke="none" /><path d="M 119.26925614724726 108.34839909993367 l 12.287461070952723 5.323538602701381 a34.39110760260817,34.39110760260817 0 0,0 -0.24001540119658704,0.5411713674828974 l -12.194004585024864 -5.534258306676967" fill="#ffa70f" stroke="none" /><path d="M 118.64920377521936 109.65438752849418 l 30.53431969877489 15.807117496491571 a55.38327562951038,55.38327562951038 0 0,0 -0.4455650239950088,0.8428411098351208 l -30.25770216655499 -16.330373621412825" fill="#60ff29" stroke="none" /><line stroke="#e1ed5e" stroke-width="0.3" x1="174.80103733775053" x2="179.2010983576182" y1="140.37084112569926" y2="142.7455964860345" /><path d="M 175.68104954172406 140.8457921977663 a86.0,86.0 0 0,1 -30.038265399797805,32.042727171017184" fill="none" id="id17" stroke="none" /><text fill="#e1ed5e" style="font-size:6.75px; font-family:Arial;" text-anchor="middle"><textPath startOffset="22.206326154141568" xlink:href="#id17">May</textPath></text><path d="M 118.30583269289576 110.29060199501023 l 11.671406316600653 6.561067127680962 a34.38914960933372,34.38914960933372 0 0,0 -0.2945152338693222,0.5135121350141129 l -11.556739086578949 -6.7609991085533885" fill="#ffa70f" stroke="none" /><path d="M 118.12598468904814 110.60418214915192 l 11.61465066068229 6.794878916512567 a34.45624351220483,34.45624351220483 0 0,0 -0.30390263095520087,0.5093582899275894 l -11.495967154028861 -6.99379930032626" fill="#ffa80f" stroke="none" /><path d="M 117.35343817320211 111.8261652097733 l 11.063424932232591 7.53959473210057 a34.38823587913898,34.38823587913898 0 0,0 -0.337559988020009,0.4862803391563886 l -10.932004037050445 -7.728916333443978" fill="#ffa70f" stroke="none" /><path d="M 115.80600337817218 113.82643327865902 l 3.6351675793134626 3.1798931576550316 a25.82971674363963,25.82971674363963 0 0,0 -0.29561637311543076,0.33212812900283495 l -3.5798923565496983 -3.241995456398733" fill="#ff3204" stroke="none" /><path d="M 114.81725581225074 114.88116024355365 l 9.423310134788395 9.46395134951702 a34.35534159212825,34.35534159212825 0 0,0 -0.42265257792724714,0.4136545040775957 l -9.259007604485353 -9.624755956517188" fill="#ffa70f" stroke="none" /><path d="M 114.29624159901734 115.38237550388516 l 9.350287093344708 10.060660079278836 a34.73480068871636,34.73480068871636 0 0,0 -0.4414635215712896,0.4032664599563042 l -9.175724022306554 -10.220119305821724" fill="#ffac0f" stroke="none" /><path d="M 114.0293411484842 115.62618273729858 l 15.869962383207541 17.67630636459711 a44.75515760291896,44.75515760291896 0 0,0 -0.5776775102448598,0.509733237378677 l -15.563342520056095 -17.946862743748074" fill="#d6ff1c" stroke="none" /><path d="M 112.04921762599082 117.19931262002967 l 7.726062087931524 11.028347341445444 a34.465380814152255,34.465380814152255 0 0,0 -0.4888226854450388,0.33621670037231716 l -7.535082517863602 -11.159704831182856" fill="#ffa80f" stroke="none" /><path d="M 111.1453310114006 117.79835938074945 l 7.341360446535107 11.723668990844171 a34.832569819553825,34.832569819553825 0 0,0 -0.5109121916301279,0.31384399713644495 l -7.138469054972671 -11.848301454808995" fill="#ffad10" stroke="none" /><line stroke="#e1ed5e" stroke-width="0.3" x1="143.8653032363475" x2="146.44561519142675" y1="172.8068346515853" y2="177.08958963109032" /><path d="M 144.38136562736335 173.6633856474863 a86.0,86.0 0 0,1 -40.68145358897372,12.25698825130547" fill="none" id="id18" stroke="none" /><text fill="#e1ed5e" style="font-size:6.75px; font-family:Arial;" text-anchor="middle"><textPath startOffset="21.466115282336833" xlink:href="#id18">June</textPath></text><path d="M 110.21172684928248 118.3499491758327 l 6.526964044145102 11.728619483291945 a34.42243549499935,34.42243549499935 0 0,0 -0.5202331326683654,0.28367258340980617 l -6.324108099608087 -11.83923271846152" fill="#ffa70f" stroke="none" /><path d="M 107.59598834532513 119.57807347666477 l 4.8398758155253185 12.474406229520323 a34.38040390604119,34.38040390604119 0 0,0 -0.553573256329633,0.20931403816324706 l -4.624432338435411 -12.5558685177902" fill="#ffa70f" stroke="none" /><path d="M 107.2578585660854 119.70592522655815 l 4.6154546977573165 12.531493185272684 a34.3544278619335,34.3544278619335 0 0,0 -0.5566733241510863,0.199603248552372 l -4.399061812976496 -12.609083974865015" fill="#ffa70f" stroke="none" /><path d="M 105.53697534728816 120.25689768951611 l 3.3580339737290643 12.285290501982217 a33.7359630529777,33.7359630529777 0 0,0 -0.5614781670463771,0.148291487112596 l -3.1460653638711897 -12.341273338398398" fill="#ff9e0e" stroke="none" /><path d="M 105.18746579009965 120.34920634021253 l 3.429107741717241 13.451581913503825 a34.88178071718497,34.88178071718497 0 0,0 -0.5831016449083514,0.14331219752593585 l -3.1970528120656785 -13.508615369343792" fill="#ffae10" stroke="none" /><path d="M 102.70371172650421 120.8252237178851 l 1.7103334953992329 13.173770459594882 a34.28433170270824,34.28433170270824 0 0,0 -0.5858907841481984,0.0709432146259941 l -1.483315288199654 -13.201259202946227" fill="#ffa60f" stroke="none" /><path d="M 101.98527174616119 120.90594882070398 l 1.2169860553982597 12.815499056420206 a33.87315311507406,33.87315311507406 0 0,0 -0.5809337414478438,0.05012540765382134 l -0.9962079962088741 -12.83454871635269" fill="#ffa00e" stroke="none" /><line stroke="#e1ed5e" stroke-width="0.3" x1="102.19456741930631" x2="102.32365962044197" y1="184.97166512339345" y2="189.96999836594603" /><path d="M 102.22038585953345 185.97133177190398 a86.0,86.0 0 0,1 -42.740103519485714,-10.115201625700543" fill="none" id="id19" stroke="none" /><text fill="#e1ed5e" style="font-size:6.75px; font-family:Arial;" text-anchor="middle"><textPath startOffset="22.20632615414155" xlink:href="#id19">July</textPath></text><path d="M 100.54218724476979 120.99299961872073 l 0.34891219768283516 13.509564645019907 a34.514069580243536,34.514069580243536 0 0,0 -0.5940369529594886,0.010226884864368086 l -0.1163155548306787 -13.513569007163435" fill="#ffa90f" stroke="none" /><path d="M 99.09653310690486 120.98055641714683 l -0.4357424099418686 10.118929963011063 a31.128307610067193,31.128307610067193 0 0,0 -0.5351281170156881,-0.027660011198546434 l 0.6098585953710456 -10.109930145050313" fill="#ff7c0b" stroke="none" /><line stroke="#e1ed5e" stroke-width="0.3" x1="58.666819895761336" x2="56.23545636021788" y1="174.27360380694188" y2="178.64263932499728" /><path d="M 58.180547188652646 175.14741091055294 a86.0,86.0 0 0,1 -31.652253787137756,-30.449443065178592" fill="none" id="id20" stroke="none" /><text fill="#e1ed5e" style="font-size:6.75px; font-family:Arial;" text-anchor="middle"><textPath startOffset="22.20632615414155" xlink:href="#id20">August</textPath></text><path d="M 89.4739219176387 118.17145234162733 l -6.889363545026474 11.893294002100903 a34.74459065508861,34.74459065508861 0 0,0 -0.5149349009443146,-0.30423261593937817 l 7.093066316999171 -11.772942813867775" fill="#ffac0f" stroke="none" /><path d="M 87.95078237400918 117.19931262002967 l -8.521234506551378 12.16339356927415 a35.851248453806896,35.851248453806896 0 0,0 -0.5023829848788238,-0.3584369206154914 l 8.729344819279087 -12.01491238681444" fill="#ffba11" stroke="none" /><path d="M 87.07902340077011 116.55440617244103 l -8.232435205180673 10.547428449254104 a34.379881774501335,34.379881774501335 0 0,0 -0.4633794255969363,-0.36813664055230755 l 8.412772123494968 -10.404157894696665" fill="#ffa70f" stroke="none" /><path d="M 86.51685102203217 116.09983520530335 l -10.376675168350944 12.390485372697636 a37.1616680859528,37.1616680859528 0 0,0 -0.48687894468715376,-0.41492879927552695 l 10.588419589615155 -12.210032183199157" fill="#ffcb12" stroke="none" /><path d="M 85.70375840098266 115.38237550388516 l -9.107601374220916 9.79953670394017 a34.378315379881776,34.378315379881776 0 0,0 -0.42999769163362245,-0.4065896565422558 l 9.274934900245354 -9.641312410651985" fill="#ffa70f" stroke="none" /><path d="M 84.9287848128048 114.62390073753433 l -2.767413819360719 2.685276833443156 a24.856071954698873,24.856071954698873 0 0,0 -0.2953060529119333,-0.3096272158601205 l 2.81322642365161 -2.6372425010005354" fill="#ff2403" stroke="none" /><path d="M 84.67929136418377 114.36230785411682 l -1.417136265202925 1.328486024758436 a22.942459861137873,22.942459861137873 0 0,0 -0.2676113310666418,-0.2904392459930517 l 1.439794004265298 -1.3038955239640426" fill="#ff0801" stroke="none" /><path d="M 84.4343377721795 114.09645910891817 l -22.46053490653522 20.34054235794213 a51.30203444824993,51.30203444824993 0 0,0 -0.587142379746343,-0.659660687898636 l 22.807336135929894 -19.95090750030263" fill="#8cff24" stroke="none" /><path d="M 83.95833913139862 113.55231037782056 l -10.438013049472348 8.818238568493305 a34.66431293083622,34.66431293083622 0 0,0 -0.3811489769843949,-0.4591184962665705 l 10.58825802635028 -8.637258815112974" fill="#ffab0f" stroke="none" /><path d="M 83.72743513129214 113.27417163493432 l -10.766986276295931 8.783054483154972 a34.89496453856625,34.89496453856625 0 0,0 -0.3756726876976497,-0.4687094402191994 l 10.916576876048442 -8.596417209357513" fill="#ffae10" stroke="none" /><path d="M 83.50135304334701 112.99209946851258 l -10.88765688996091 8.573643745759899 a34.85815426500662,34.85815426500662 0 0,0 -0.367161242275256,-0.47460539947430325 l 11.033624949454234 -8.384960352172344" fill="#ffad10" stroke="none" /><path d="M 83.28015986056508 112.70617746262583 l -1.4404427198861747 1.0946588406939004 a22.80918578559041,22.80918578559041 0 0,0 -0.23486806866631152,-0.3146441595697601 l 1.4590720552475713 -1.0697018016148347" fill="#ff0601" stroke="none" /><path d="M 82.85270091963577 112.12312394758628 l -3.1351997616153375 2.216583214206022 a24.839624811193506,24.839624811193506 0 0,0 -0.24382941547678005,-0.35125445865144034 l 3.1728900842542513 -2.162287493367571" fill="#ff2403" stroke="none" /><path d="M 82.6465618267979 111.8261652097733 l -11.056845081981368 7.535110641089336 a34.38027337315622,34.38027337315622 0 0,0 -0.32906324681593113,-0.49190490610218524 l 11.184911434208031 -7.343668820781327" fill="#ffa70f" stroke="none" /><path d="M 82.44556493220864 111.52570212397912 l -20.137314327916613 13.221541201650593 a45.08984391996469,45.08984391996469 0 0,0 -0.42039867383891305,-0.6524680776281183 l 20.36191786513257 -12.872951524101028" fill="#d2ff1c" stroke="none" /><path d="M 82.05923443525364 110.91462005526583 l -8.378728609337783 5.097365493522105 a30.807457778827565,30.807457778827565 0 0,0 -0.27172049294086364,-0.4554191755024413 l 8.465229977976879 -4.952384224133553" fill="#ff770b" stroke="none" /><line stroke="#e1ed5e" stroke-width="0.3" x1="26.63291911575756" x2="22.317208475507996" y1="142.92168965132927" y2="145.44649492493687" /><path d="M 25.769776987707644 143.4266507060508 a86.0,86.0 0 0,1 -11.730757126820373,-40.83630448921669" fill="none" id="id21" stroke="none" /><text fill="#e1ed5e" style="font-size:6.75px; font-family:Arial;" text-anchor="middle"><textPath startOffset="21.46611528233685" xlink:href="#id21">September</textPath></text><path d="M 81.87401531095188 110.60418214915194 l -14.368379809825585 8.405883559178319 a37.64659775359121,37.64659775359121 0 0,0 -0.32241264083989424,-0.5621536155467356 l 14.510944446817858 -8.157310097773276" fill="#ffd113" stroke="none" /><path d="M 81.51974371655577 109.97397251340807 l -13.167379317739702 7.106561585209628 a35.962723537565495,35.962723537565495 0 0,0 -0.28932437805112105,-0.5472926885340326 l 13.28775620401571 -6.87885388158947" fill="#ffbc11" stroke="none" /><path d="M 81.02952815118164 109.00673069616217 l -3.6111097775235654 1.7144693890394034 a24.997439069114055,24.997439069114055 0 0,0 -0.18120213049137968,-0.39029326858013025 l 3.640086524854772 -1.652056053180446" fill="#ff2603" stroke="none" /><path d="M 80.45479744820244 107.68017299344265 l -13.354797024511262 5.247689358487954 a35.34882737958341,35.34882737958341 0 0,0 -0.21765740904008207,-0.5682348125442943 l 13.443148713144852 -5.017030979110502" fill="#ffb410" stroke="none" /><path d="M 80.32549172779594 107.34259656027581 l -4.749036106232015 1.7723571890998244 a26.068983521777238,26.068983521777238 0 0,0 -0.15328033358067011,-0.42176164673024036 l 4.778840700817909 -1.6903477453634668" fill="#ff3505" stroke="none" /><path d="M 80.20201598880116 107.00284435728193 l -14.678140359747019 5.191878745608824 a36.569309853989644,36.569309853989644 0 0,0 -0.20480410213844427,-0.5952565874894866 l 14.765335292828691 -4.93844945503004" fill="#ffc312" stroke="none" /><path d="M 79.97269907076064 106.31721596034903 l -27.917892425953266 8.806146980847188 a50.273826913394544,50.273826913394544 0 0,0 -0.25322023481418604,-0.8275383785974967 l 28.065339433273582 -8.324281629697643" fill="#97ff23" stroke="none" /><path d="M 79.86692584326677 105.97154293290107 l -6.423526770995343 1.90524137521292 a27.7001224522778,27.7001224522778 0 0,0 -0.13165124666161293,-0.4582952606500581 l 6.45537065454306 -1.794388639058266" fill="#ff4c07" stroke="none" /><path d="M 79.76711848015287 105.62410040840567 l -13.919247558550962 3.8691100821183295 a35.44698810907577,35.44698810907577 0 0,0 -0.15835000678108152,-0.5892792828808195 l 13.983785641673816 -3.628939866061971" fill="#ffb510" stroke="none" /><path d="M 79.67330655649465 105.27499134158121 l -37.91164155216857 9.83847085059066 a60.16743639629784,60.16743639629784 0 0,0 -0.25152476968888127,-1.0047164247147506 l 38.07537763615251 -9.18442658647852" fill="#30ff2f" stroke="none" /><path d="M 79.50377843672027 104.57218783832718 l -8.157643713090987 1.8197636700621436 a29.35815115708079,29.35815115708079 0 0,0 -0.10578155850350905,-0.4941762248342581 l 8.187759310318937 -1.6790736258117216" fill="#ff6309" stroke="none" /><path d="M 79.4281124754447 104.21870165774334 l -9.380547473031603 1.923680125500492 a30.575761908017824,30.575761908017824 0 0,0 -0.10129322882194594,-0.5164919914908496 l 9.412270634829214 -1.7619244069416877" fill="#ff740a" stroke="none" /><path d="M 79.35854240842038 103.8639653848113 l -3.030546114241825 0.5673012785338222 a24.08318674283157,24.08318674283157 0 0,0 -0.07276970850677852,-0.4081311706840098 l 3.0398622650877924 -0.5150513571165988" fill="#ff1902" stroke="none" /><path d="M 79.29508885075956 103.50808413554451 l -13.629187716883882 2.309226872085005 a34.8234325176064,34.8234325176064 0 0,0 -0.09504847900129422,-0.591866969471927 l 13.666917950246466 -2.074280672919864" fill="#ffad10" stroke="none" /><path d="M 79.23777060512086 103.15116336523772 l -15.776837134085744 2.394511217977153 a36.9575146538703,36.9575146538703 0 0,0 -0.09004601473015343,-0.6297816172970564 l 15.815717199832497 -2.1225841286996956" fill="#ffc812" stroke="none" /><path d="M 79.1416061653843 102.43462659150553 l -13.794137800746325 1.610074819895997 a34.887785229893275,34.887785229893275 0 0,0 -0.0644887394452406,-0.5970856349008293 l 13.819808841692618 -1.3723928631103857" fill="#ffae10" stroke="none" /><path d="M 79.07016306316243 101.71520430193888 l -13.87364877194224 1.1369482776687085 a34.920157385364156,34.920157385364156 0 0,0 -0.043938606195445075,-0.5995073721516581 l 13.89116393680202 -0.8979677690202899" fill="#ffae10" stroke="none" /><path d="M 79.04373962182676 101.35467743843564 l -28.901269914818297 1.8682674097961365 a49.96159225256249,49.96159225256249 0 0,0 -0.048090766423500776,-0.8586929400412417 l 28.92914703212933 -1.370502753419457" fill="#9aff22" stroke="none" /><path d="M 79.0235259727143 100.99374915477108 l -13.83441483174992 0.6553979485742439 a34.84993069325394,34.84993069325394 0 0,0 -0.02322974761852505,-0.5994565669708857 l 13.843646712219646 -0.41716413458936147" fill="#ffad10" stroke="none" /><path d="M 79.0095281055655 100.63252640178507 l -8.831892496883782 0.2661400472605719 a29.83590151604622,29.83590151604622 0 0,0 -0.011050560558480882,-0.5134761268086591 l 8.83516512012727 -0.11407410466178405" fill="#ff6a09" stroke="none" /><line stroke="#e1ed5e" stroke-width="0.3" x1="15.007084014347285" x2="10.007500721073583" y1="101.09737516637583" y2="101.16192664675087" /><path d="M 14.007167355692545 101.11028546245083 a86.0,86.0 0 0,1 10.666146001902534,-42.60595125391555" fill="none" id="id22" stroke="none" /><text fill="#e1ed5e" style="font-size:6.75px; font-family:Arial;" text-anchor="middle"><textPath startOffset="22.20632615414155" xlink:href="#id22">October</textPath></text><path d="M 79.00175016825051 100.2711162175752 l -3.3142147808463713 0.04279106034143419 a24.31449101498642,24.31449101498642 0 0,0 -0.0018012437893509048,-0.4185456211533089 l 3.314460321925225 0.014264039015550109" fill="#ff1c02" stroke="none" /><path d="M 79.00486145842228 99.54816195383935 l -13.484710063853477 -0.2902055176358234 a34.48783247036593,34.48783247036593 0 0,0 0.017881621785708075,-0.5934039724832768 l 13.477716747612124 0.5222796375440946" fill="#ffa80f" stroke="none" /><path d="M 79.03285615573316 98.82574320788736 l -6.534287824514121 -0.36595026564157956 a27.544527253401625,27.544527253401625 0 0,0 0.03058676650534096,-0.47316373981431054 l 6.527020467004367 0.47837306970890187" fill="#ff4a06" stroke="none" /><path d="M 79.05617556472873 98.46500227214037 l -13.067840406843215 -0.9577575191451337 a34.10289099260935,34.10289099260935 0 0,0 0.04794787903829594,-0.5850855717913029 l 13.049418043985423 1.1825570081442152" fill="#ffa30f" stroke="none" /><path d="M 79.08570108090925 98.10471618934814 l -14.364759862764506 -1.3017551732010308 a35.423622722667346,35.423622722667346 0 0,0 0.06025874392390448,-0.6067973278303808 l 14.340223993158373 1.5488280317358418" fill="#ffb510" stroke="none" /><path d="M 79.12142395522702 97.74499172005258 l -15.907554489324578 -1.7181088887583555 a37.00006837436831,37.00006837436831 0 0,0 0.07384094306727856,-0.6326241062964378 l 15.87562319325371 1.9916767333796552" fill="#ffc912" stroke="none" /><path d="M 79.16333360222342 97.38593545837743 l -19.08507000319723 -2.3943179689753955 a40.23467326375723,40.23467326375723 0 0,0 0.09212590795820236,-0.6864450211155078 l 19.041028096181194 2.7224813321555623" fill="#fff216" stroke="none" /><path d="M 79.21141760316559 97.0276538004421 l -27.246676809585555 -3.89572288863171 a48.523772524692475,48.523772524692475 0 0,0 0.12533946131221324,-0.825830446209967 l 27.17558145483404 4.364152447233769" fill="#abff21" stroke="none" /><path d="M 79.26566170972629 96.67025291283419 l -16.831675433295622 -2.703014750773442 a38.04733371042833,38.04733371042833 0 0,0 0.1094098884234111,-0.6457433548136637 l 16.782653683351988 2.9923438939029334" fill="#ffd614" stroke="none" /><path d="M 79.32604984820605 96.31383870115002 l -1.8538305489826485 -0.3305376270191254 a22.883067398479604,22.883067398479604 0 0,0 0.07247860298722461,-0.38718359531339513 l 1.8478662220855622 0.3623992997950933" fill="#ff0701" stroke="none" /><path d="M 79.3925641242962 95.95851677861259 l -13.202008876020413 -2.5891478048441057 a34.4535023216206,34.4535023216206 0 0,0 0.11914464746621223,-0.5809916144055516 l 13.155484932639206 2.8160150754130595" fill="#ffa80f" stroke="none" /><path d="M 79.46518482838121 95.60439243477599 l -16.107191499958027 -3.4478466068485187 a37.472075286395366,37.472075286395366 0 0,0 0.1404410788438831,-0.6295698187289405 l 16.045456034112107 3.724594595127418" fill="#ffcf13" stroke="none" /><path d="M 79.54389044137918 95.25157060432595 l -9.39400029954753 -2.1806075606660826 a30.64376954108367,30.64376954108367 0 0,0 0.12369459683098095,-0.5127939606839406 l 9.355072902455735 2.34198675300942" fill="#ff750a" stroke="none" /><path d="M 79.62865764111835 94.90015583598534 l -20.022996317264756 -5.012637808336133 a41.64090403346614,41.64090403346614 0 0,0 0.1800546109750114,-0.6938238649850732 l 19.933745374419438 5.35655809887007" fill="#fbff18" stroke="none" /><path d="M 79.71946130924805 94.55025226153421 l -23.491559902537418 -6.312607244020898 a45.324933645783474,45.324933645783474 0 0,0 0.20895491429112906,-0.7517220029577544 l 23.379418217679927 6.716040550397595" fill="#cfff1d" stroke="none" /><path d="M 79.91906864156998 93.8553929516997 l -15.922674859603344 -4.872213266594327 a37.65142747033485,37.65142747033485 0 0,0 0.19497077455705353,-0.618110635914565 l 15.836448601278088 5.145574068935307" fill="#ffd113" stroke="none" /><path d="M 80.02781315780177 93.51064311812611 l -28.410388918610035 -9.231094937293495 a50.872450723835925,50.872450723835925 0 0,0 0.2777701367836754,-0.8304973537328445 l 28.24728148805459 9.718765393948662" fill="#90ff24" stroke="none" /><path d="M 80.14247586403 93.16781622104843 l -20.832755820641705 -7.167722190040005 a43.03134032409451,43.03134032409451 0 0,0 0.24701407165210496,-0.6983420438331281 l 20.70628866817979 7.525261860299745" fill="#eaff1a" stroke="none" /><path d="M 80.38941819471856 92.48833698450439 l -16.842922509233386 -6.451535163092086 a39.036250846909795,39.036250846909795 0 0,0 0.2457544833522749,-0.625418354408638 l 16.72937447599942 6.740502522396487" fill="#ffe315" stroke="none" /><path d="M 80.52162464483688 92.15188598940014 l -15.059270176189496 -6.067593785630256 a37.23568023172695,37.23568023172695 0 0,0 0.24465315933421322,-0.5924470310423292 l 14.952595329969082 6.325915387125897" fill="#ffcc13" stroke="none" /><path d="M 81.43458229118936 90.18545643968196 l -5.034089077576605 -2.661253698318327 a26.694236040751125,26.694236040751125 0 0,0 0.21824686313082553,-0.4043782914273626 l 4.987534115227308 2.7475129730781624" fill="#ff3e05" stroke="none" /><path d="M 81.6062741919709 89.86733742301443 l -12.255776355309722 -6.751413374507496 a34.992342070748826,34.992342070748826 0 0,0 0.2951726671959313,-0.5250792386902734 l 12.13774604682136 6.9613761231325535" fill="#ffaf10" stroke="none" /><line stroke="#e1ed5e" stroke-width="0.3" x1="26.266209847984243" x2="21.928928074336255" y1="57.711370442889674" y2="55.22380399835377" /><path d="M 25.398753493254645 57.213857153982495 a86.0,86.0 0 0,1 29.58750427330803,-30.492523968695096" fill="none" id="id23" stroke="none" /><text fill="#e1ed5e" style="font-size:6.75px; font-family:Arial;" text-anchor="middle"><textPath startOffset="21.46611528233685" xlink:href="#id23">November</textPath></text><path d="M 81.78341655067845 89.55222093294921 l -16.604278973691475 -9.52307213739722 a40.141342251008524,40.141342251008524 0 0,0 0.3489244610332042,-0.5964250094315824 l 16.437894838187947 9.807476559182694" fill="#fff016" stroke="none" /><path d="M 81.96595687620814 89.24020034530311 l -22.58540295889897 -13.475314952405128 a47.29989619527719,47.29989619527719 0 0,0 0.4231858684663976,-0.6956062985267467 l 22.350101292146356 13.86208902413895" fill="#b8ff1f" stroke="none" /><path d="M 82.34701348167596 88.62581576622439 l -36.883537461923886 -23.764825846879724 a64.87667128711641,64.87667128711641 0 0,0 0.6129404700067668,-0.9335503872488257 l 36.4690003565592 24.396194298106217" fill="#35ff66" stroke="none" /><path d="M 82.54541684631803 88.32363383020206 l -5.010086716543029 -3.3515327481456825 a27.027747561832186,27.027747561832186 0 0,0 0.26200895960335174,-0.3844658180104148 l 4.951653291270937 3.437276589426513" fill="#ff4306" stroke="none" /><path d="M 82.7489923806493 88.02491185347247 l -6.1452271313059486 -4.265816710629391 a28.480709104357935,28.480709104357935 0 0,0 0.2830268842436329,-0.40032145616027104 l 6.070887627258438 4.370964667121449" fill="#ff5708" stroke="none" /><path d="M 83.17141714833178 87.43820079747577 l -1.9208427880903256 -1.4338249165891912 a23.396975366579852,23.396975366579852 0 0,0 0.2436895923168983,-0.32066693851611117 l 1.8958772555493184 1.4666766309863266" fill="#ff0f01" stroke="none" /><path d="M 83.39014120810768 87.1503855733568 l -9.309032987344349 -7.201595514506459 a32.76949757270992,32.76949757270992 0 0,0 0.34898878157725455,-0.44318031223746474 l 9.183690125173122 7.360768220696972" fill="#ff920d" stroke="none" /><path d="M 83.84228863543731 86.58626213691792 l -12.156021575282326 -10.09163260747605 a36.79904773152494,36.79904773152494 0 0,0 0.40880129854978503,-0.48389179491579026 l 11.980509663245417 10.299383352020957" fill="#ffc612" stroke="none" /><path d="M 84.07557802195018 86.31012108654704 l -10.210678517057715 -8.777898043357057 a34.46511974838232,34.46511974838232 0 0,0 0.3906180439466161,-0.4465439493875031 l 10.058068609533255 8.952357548947504" fill="#ffa80f" stroke="none" /><path d="M 84.31358615837235 86.03803664274999 l -14.626638283322029 -13.018691831880329 a40.58123807333462,40.58123807333462 0 0,0 0.4689188328651868,-0.5177918871857421 l 14.400375809840797 13.268536506335625" fill="#fff617" stroke="none" /><path d="M 84.5562425177563 85.77008943001954 l -12.061046711047316 -11.113073763032562 a37.40028219966559,37.40028219966559 0 0,0 0.4403129489182821,-0.4696951539734899 l 11.867966440158577 11.319038333884102" fill="#ffce13" stroke="none" /><path d="M 84.80347519578584 85.50635884689758 l -14.165123227021274 -13.50994491089103 a40.574711429086456,40.574711429086456 0 0,0 0.48638594555403647,-0.501263471425078 l 13.930473017764124 13.75177257786623" fill="#fff617" stroke="none" /><path d="M 85.05521093208273 85.24692304244772 l -4.0149042666562105 -3.963400979030264 a26.64163128811094,26.64163128811094 0 0,0 0.32498248386458806,-0.3235869057997803 l 3.946085982624307 4.031923735480156" fill="#ff3d05" stroke="none" /><path d="M 85.31137513191541 84.99185889309783 l -9.857636864553418 -10.072066403252803 a35.09324399082541,35.09324399082541 0 0,0 0.43535133788607155,-0.4188076421179912 l 9.682802283054919 10.240257132133104" fill="#ffb010" stroke="none" /><path d="M 85.57189188830299 84.74124197986013 l -29.62426126263826 -31.32977869534644 a64.11788362682512,64.11788362682512 0 0,0 0.8084719091496271,-0.7513865291029028 l 29.08058146969378 31.835069810523997" fill="#34ff5d" stroke="none" /><path d="M 85.83668400450813 84.49514656593479 l -8.878450604674068 -9.719410016049595 a34.164110915657105,34.164110915657105 0 0,0 0.4376081168982999,-0.39288888812607115 l 8.709831500179797 9.870797912944944" fill="#ffa40f" stroke="none" /><path d="M 86.10567301691215 84.25364557470407 l -9.983370903660761 -11.314092204651226 a36.08894883732495,36.08894883732495 0 0,0 0.46933884418060745,-0.4070060207316507 l 9.78713826083338 11.484263218802557" fill="#ffbd11" stroke="none" /><path d="M 86.37877921826538 84.01681056812374 l -3.5932881853866405 -4.216377274155288 a26.53981563783962,26.53981563783962 0 0,0 0.3502528511677139,-0.2933266901201988 l 3.5201777972598163 4.2776051216693" fill="#ff3c05" stroke="none" /><path d="M 87.80319425747018 82.90503203632743 l -8.126604473879484 -11.390198882153609 a34.9920810049789,34.9920810049789 0 0,0 0.49333645460668335,-0.34561371350783604 l 7.9293368796891395 11.528397438425387" fill="#ffaf10" stroke="none" /><path d="M 89.00827224532344 82.1063720568725 l -4.192979396344459 -6.8258252902475425 a29.010803150193624,29.010803150193624 0 0,0 0.42775453070440644,-0.25771731857129476 l 4.074862799422406 6.896989218277456" fill="#ff5f08" stroke="none" /><line stroke="#e1ed5e" stroke-width="0.3" x1="56.76296977257108" x2="54.21961505331056" y1="26.818313649435495" y2="22.513508569990535" /><path d="M 56.25429882871898 25.957352633546506 a86.0,86.0 0 0,1 42.26535254187918,-11.944610805530505" fill="none" id="id24" stroke="none" /><text fill="#e1ed5e" style="font-size:6.75px; font-family:Arial;" text-anchor="middle"><textPath startOffset="22.20632615414155" xlink:href="#id24">December</textPath></text><path d="M 89.94658935756843 81.56283822128135 l -3.0510991155882463 -5.595475008210754 a27.373268108329864,27.373268108329864 0 0,0 0.4156239109071306,-0.22201189923903764 l 2.9543301581528105 5.647165633951541" fill="#ff4806" stroke="none" /><path d="M 90.58718382345135 81.22770947309562 l -1.6601834857847675 -3.310958818123633 a24.703870610831743,24.703870610831743 0 0,0 0.38176742044150475,-0.18733161521294234 l 1.6029447983328369 3.3390455934714054" fill="#ff2203" stroke="none" /><path d="M 90.91171255644093 81.06846463323043 l -6.112882949173498 -12.73356069159286 a35.12483294898651,35.12483294898651 0 0,0 0.5473147935890388,-0.25697163428020836 l 5.892789944284851 12.836897308513077" fill="#ffb110" stroke="none" /><path d="M 91.23893434514133 80.91482961587045 l -1.2827460482735225 -2.7943435028696815 a24.07470210530896,24.07470210530896 0 0,0 0.3781079641388803,-0.1696460219265069 l 1.2344559656678677 2.8160098553127173" fill="#ff1902" stroke="none" /><path d="M 91.90106846888425 80.62456947434976 l -2.372858718161732 -5.676694396574595 a27.152667532742,27.152667532742 0 0,0 0.4327826574720295,-0.17654291250821688 l 2.2747921911013225 5.716698195266389" fill="#ff4506" stroke="none" /><path d="M 92.57280143429618 80.3572730644239 l -2.038014163955488 -5.389940144897764 a26.76237420670193,26.76237420670193 0 0,0 0.43229858739055416,-0.15921921805379546 l 1.9449332507923653 5.424222630757882" fill="#ff3f05" stroke="none" /><path d="M 93.59665428221793 80.00007090966166 l -6.252734014600882 -19.52951510418825 a41.50606356329912,41.50606356329912 0 0,0 0.6823095363451956,-0.2119968942550856 l 5.915639105544957 19.634252133325862" fill="#fdff18" stroke="none" /><path d="M 95.692805502759 79.44645832069477 l -0.29005740452830425 -1.3841276397391384 a22.41419327569167,22.41419327569167 0 0,0 0.3783020476952841,-0.07588383188678402 l 0.2661889473658838 1.3889154277031333" fill="#ff0000" stroke="none" /><path d="M 96.40284397218896 79.31037775812273 l -2.1969440552750883 -12.636077567599832 a33.825639144947445,33.825639144947445 0 0,0 0.5745055984137138,-0.09479834629218081 l 1.979109250722489 12.67202217683164" fill="#ffa00e" stroke="none" /><path d="M 97.83486435360386 79.11191278185805 l -0.5690649225331742 -5.490038351381558 a26.519452507785353,26.519452507785353 0 0,0 0.45446117147027465,-0.0431565642480521 l 0.47447862397266327 5.4990204601447905" fill="#ff3c05" stroke="none" /><path d="M 98.55514903715128 79.0497635885617 l -0.1662469071369946 -2.4105683539314287 a23.41629423355441,23.41629423355441 0 0,0 0.40235655404782494,-0.024271246128250625 l 0.12472830424954667 2.413072869439986" fill="#ff0f01" stroke="none" /><path d="M 98.91598698831166 79.02799685794201 l -0.40377849020334317 -7.811754724282382 a28.822183131421752,28.822183131421752 0 0,0 0.4956855080222259,-0.02134526067760375 l 0.2692521497917932 7.8175477114841785" fill="#ff5c08" stroke="none" /><path d="M 99.27714615592234 79.0124445844662 l -0.27120217787706036 -7.8741654120562945 a28.878834403495794,28.878834403495794 0 0,0 0.4969543600019602,-0.012834864960676269 l 0.13562118268022114 7.8776670691593305" fill="#ff5d08" stroke="none" /><path d="M 99.63851952072746 79.00311137660856 l -0.2795491880773326 -16.237842714582058 a37.24024888270067,37.24024888270067 0 0,0 0.6410296673498643,-0.00551754472716883 l 3.977713762311151e-15 16.24024888270067" fill="#ffcc13" stroke="none" /></svg>